<svg width="152" height="164" viewBox="0 0 152 164" fill="none" xmlns="http://www.w3.org/2000/svg">
<path d="M13.7074 117.509C3.63791 102.545 -0.734193 84.4694 1.38386 66.5595C3.50191 48.6497 11.9699 32.0916 25.2522 19.8881C38.5345 7.68452 55.7515 0.643549 73.7812 0.0419949C91.8108 -0.559559 109.459 5.31814 123.526 16.6092C137.592 27.9003 147.146 43.857 150.454 61.5858C153.762 79.3147 150.605 97.6415 141.556 113.243C132.506 128.845 118.164 140.688 101.13 146.624C84.096 152.561 65.4976 152.199 48.7077 145.603C47.6192 149.487 45.5843 153.041 42.7851 155.946C39.9859 158.851 36.5098 161.017 32.6681 162.249C28.8263 163.482 24.7387 163.743 20.7713 163.009C16.8038 162.275 13.0804 160.569 9.93421 158.043C6.78805 155.518 4.31736 152.252 2.74336 148.538C1.16937 144.824 0.541183 140.778 0.915039 136.761C1.28889 132.745 2.65314 128.884 4.88562 125.524C7.11809 122.164 10.1491 119.41 13.7074 117.509V117.509Z" fill="#F1EDED"/>
<path d="M31.5083 67.4143L121.243 67.4143V60.332L31.5083 60.332V67.4143Z" fill="#131313"/>
<path d="M31.5083 79.218L121.243 79.218V72.1357L31.5083 72.1357V79.218Z" fill="#131313"/>
<path d="M31.5083 91.022L121.243 91.022V83.9397L31.5083 83.9397V91.022Z" fill="#131313"/>
</svg>
