<svg width="108" height="118" viewBox="0 0 108 118" fill="none" xmlns="http://www.w3.org/2000/svg">
<path d="M98.7707 84.851C105.976 74.046 109.105 60.9939 107.589 48.0615C106.074 35.1291 100.014 23.1728 90.5093 14.3608C81.0045 5.54886 68.684 0.464695 55.782 0.0303236C42.88 -0.404047 30.2509 3.84014 20.1849 11.9932C10.1188 20.1463 3.2824 31.6684 0.915346 44.4701C-1.45171 57.2718 0.807351 70.5053 7.28285 81.7709C13.7583 93.0365 24.0215 101.588 36.2111 105.875C48.4008 110.162 61.7097 109.9 73.7245 105.137C74.5035 107.942 75.9597 110.508 77.9628 112.606C79.9659 114.703 82.4533 116.267 85.2025 117.157C87.9517 118.047 90.8767 118.236 93.7158 117.706C96.5549 117.176 99.2194 115.944 101.471 114.121C103.722 112.297 105.49 109.939 106.617 107.257C107.743 104.575 108.192 101.653 107.925 98.7532C107.657 95.8531 106.681 93.0651 105.084 90.639C103.486 88.2128 101.317 86.2242 98.7707 84.851V84.851Z" fill="#F1EDED"/>
<path d="M86 44H22V49H86V44Z" fill="#131313"/>
<path d="M86 52H22V57H86V52Z" fill="#131313"/>
<path d="M86 61H22V66H86V61Z" fill="#131313"/>
</svg>
