<svg width="84" height="19" viewBox="0 0 84 19" fill="none" xmlns="http://www.w3.org/2000/svg">
<g clip-path="url(#clip0)">
<path d="M11.0018 7.05H16.0599V15.94H0V7.05H5.05812V11.4941H11.0018V7.05ZM28.0888 11.609C28.0888 13.1134 27.0875 14.0034 25.7187 14.0034C24.3811 14.0034 23.3651 13.1134 23.3651 11.609V4.45139H21.1199V11.5871C21.1199 14.4045 23.1409 16.1844 25.7242 16.1844C28.3074 16.1844 30.345 14.4045 30.345 11.5871V4.45139H28.0943L28.0888 11.609ZM36.1178 7.75573C35.2543 7.75573 34.2916 8.12045 33.8028 8.95383V7.96727H31.6991V15.9254H33.869V11.3482C33.869 10.4364 34.4202 9.70698 35.3682 9.70698C36.4118 9.70698 36.8528 10.4036 36.8528 11.2935V15.9254H39.0208V10.9087C39.0263 9.1599 38.1132 7.75209 36.1234 7.75209L36.1178 7.75573ZM44.0752 11.1057L42.8847 10.8631C42.4308 10.772 42.1497 10.5404 42.1497 10.1519C42.1497 9.69786 42.5595 9.35867 43.129 9.35867C43.9301 9.35867 44.2479 9.76898 44.3251 10.2486H46.1955C46.1808 9.15443 45.3081 7.72473 43.1621 7.72473C41.4332 7.72473 40.1618 8.9046 40.1618 10.3288C40.1618 11.4467 40.8618 12.3694 42.4106 12.6995L43.5222 12.942C44.1414 13.0715 44.3857 13.3633 44.3857 13.7189C44.3857 14.1401 43.9926 14.5121 43.2834 14.5121C42.418 14.5121 41.9476 14.0234 41.8374 13.4563H39.9082C40.0166 14.6471 40.8857 16.1625 43.2999 16.1625C45.4036 16.1625 46.4637 14.8349 46.4637 13.5402C46.4619 12.3804 45.6627 11.4266 44.0807 11.102L44.0752 11.1057ZM55.6852 11.9318C55.6852 14.3425 54.1676 16.126 51.9022 16.126C50.7998 16.126 49.9767 15.6884 49.5853 15.154V19.0073H47.4173V7.96362H49.521V8.95019C49.8885 8.33564 50.7759 7.78491 51.983 7.78491C54.3366 7.78491 55.6907 9.56474 55.6907 11.9281L55.6852 11.9318ZM53.5484 11.9482C53.5484 10.5404 52.6683 9.71427 51.5586 9.71427C50.4489 9.71427 49.5541 10.5404 49.5541 11.9482C49.5541 13.356 50.4507 14.1967 51.5586 14.1967C52.6665 14.1967 53.5631 13.3687 53.5631 11.9445L53.5484 11.9482ZM66.0421 7.96727H68.1458V15.9254H65.9778V14.9571C65.6104 15.5954 64.7707 16.1205 63.661 16.1205C61.3956 16.1205 59.8779 14.3389 59.8779 11.9263C59.8779 9.55562 61.232 7.78309 63.5801 7.78309C64.7872 7.78309 65.66 8.33928 66.0421 8.94836V7.96727ZM66.009 11.9482C66.009 10.5404 65.1124 9.71427 64.0045 9.71427C62.8966 9.71427 62.0147 10.5367 62.0147 11.9445C62.0147 13.3523 62.8948 14.193 64.0045 14.193C65.1143 14.193 66.0109 13.3542 66.0109 11.9445L66.009 11.9482ZM56.7012 15.9254H58.8693V4.45139H56.7012V15.9254ZM81.018 7.75391C80.2519 7.75391 79.3645 8.01104 78.8482 8.62559V4.45139H76.6801V15.9236H78.8482V11.2479C78.8978 10.3726 79.4361 9.69421 80.3493 9.69421C81.3929 9.69421 81.8338 10.3926 81.832 11.2826V15.9272H84.0018V10.9087C84 9.1599 83.0556 7.75391 81.018 7.75391ZM73.3013 11.102L72.1199 10.8595C71.6661 10.7683 71.385 10.5367 71.385 10.1483C71.385 9.69421 71.7929 9.35502 72.3643 9.35502C73.1635 9.35502 73.4814 9.76533 73.5586 10.2449H75.4271C75.4124 9.15078 74.5397 7.72109 72.3937 7.72109C70.6648 7.72109 69.3934 8.90095 69.3934 10.3252C69.3934 11.443 70.0952 12.3658 71.6441 12.6958L72.7465 12.9384C73.3656 13.0679 73.61 13.3596 73.61 13.7152C73.61 14.1365 73.2168 14.5085 72.5076 14.5085C71.6422 14.5085 71.1719 14.0198 71.0617 13.4526H69.1343C69.2409 14.6434 70.1099 16.1588 72.5242 16.1588C74.6279 16.1588 75.688 14.8313 75.688 13.5365C75.688 12.3804 74.8888 11.4266 73.3087 11.102H73.3013ZM11.0018 0H5.05812V4.44409H11.0018V0Z" fill="white"/>
</g>
<defs>
<clipPath id="clip0">
<rect width="84" height="19" fill="white"/>
</clipPath>
</defs>
</svg>
