<svg width="85" height="92" viewBox="0 0 85 92" fill="none" xmlns="http://www.w3.org/2000/svg">
<path d="M7.7717 66.187C2.15006 57.833 -0.290844 47.7416 0.891639 37.7428C2.07412 27.7439 6.80168 18.4998 14.217 11.6867C21.6323 4.87366 31.2444 0.942779 41.3101 0.606941C51.3759 0.271103 61.2287 3.55252 69.0819 9.85617C76.9351 16.1598 82.2687 25.0683 84.1154 34.966C85.9621 44.8638 84.1996 55.0955 79.1477 63.8056C74.0957 72.5157 66.0887 79.1275 56.5787 82.4419C47.0688 85.7564 36.6855 85.5541 27.3119 81.8717C26.7042 84.0401 25.5682 86.024 24.0054 87.6459C22.4427 89.2677 20.502 90.4769 18.3572 91.165C16.2124 91.8532 13.9303 91.9989 11.7154 91.5892C9.5004 91.1794 7.42164 90.227 5.66518 88.8171C3.90871 87.4072 2.52937 85.5839 1.65063 83.5103C0.771886 81.4368 0.421179 79.1778 0.629899 76.9356C0.838618 74.6934 1.60024 72.5378 2.8466 70.662C4.09297 68.7862 5.78517 67.2486 7.7717 66.187V66.187Z" fill="#F1EDED"/>
<path d="M26.175 46.5969C28.8666 46.5969 31.0487 44.4155 31.0487 41.7246C31.0487 39.0337 28.8666 36.8523 26.175 36.8523C23.4833 36.8523 21.3013 39.0337 21.3013 41.7246C21.3013 44.4155 23.4833 46.5969 26.175 46.5969Z" fill="#131313"/>
<path d="M42.8029 46.5969C45.4946 46.5969 47.6766 44.4155 47.6766 41.7246C47.6766 39.0337 45.4946 36.8523 42.8029 36.8523C40.1112 36.8523 37.9292 39.0337 37.9292 41.7246C37.9292 44.4155 40.1112 46.5969 42.8029 46.5969Z" fill="#131313"/>
<path d="M59.4308 46.5969C62.1225 46.5969 64.3045 44.4155 64.3045 41.7246C64.3045 39.0337 62.1225 36.8523 59.4308 36.8523C56.7392 36.8523 54.5571 39.0337 54.5571 41.7246C54.5571 44.4155 56.7392 46.5969 59.4308 46.5969Z" fill="#131313"/>
</svg>
