<svg width="50" height="50" viewBox="0 0 50 50" fill="none" xmlns="http://www.w3.org/2000/svg">
<path fill-rule="evenodd" clip-rule="evenodd" d="M25 0C38.7979 0 50 11.2021 50 25C50 38.7979 38.7979 50 25 50C11.2021 50 0 38.7979 0 25C0 11.2021 11.2021 0 25 0ZM25 8.88672C16.1045 8.88672 8.88672 16.1045 8.88672 25C8.88672 33.8955 16.1045 41.1133 25 41.1133C33.8781 41.1133 41.1133 33.8955 41.1133 25C41.1133 16.1045 33.8781 8.88672 25 8.88672ZM25 38.7714C21.8192 38.7714 18.8834 37.6879 16.5589 35.8703C16.8035 35.3634 19.5998 29.981 27.3593 27.272C27.3941 27.2546 27.4118 27.2546 27.4467 27.2368C29.3867 32.2526 30.173 36.4646 30.3828 37.6705C28.7225 38.3869 26.9049 38.7714 25 38.7714ZM32.6722 36.4121C32.5323 35.5732 31.7985 31.5536 29.9983 26.6078C34.3151 25.9262 38.0897 27.0447 38.5616 27.2021C37.9677 31.0293 35.7656 34.3325 32.6722 36.4121ZM11.2286 25.0174V24.5981C11.8229 24.6155 18.4989 24.7028 25.3671 22.6407C25.7689 23.4097 26.136 24.196 26.4854 24.9826C26.3106 25.0352 26.1186 25.0873 25.9436 25.1398C18.8482 27.4292 15.0732 33.6857 14.7587 34.2101C12.5744 31.7808 11.2286 28.5479 11.2286 25.0174ZM35.6432 16.3143C37.5654 18.6562 38.7191 21.6445 38.754 24.8775C38.2996 24.7902 33.7557 23.8641 29.1769 24.4409C29.0722 24.2137 28.9845 23.9688 28.8798 23.7241C28.6 23.0603 28.2855 22.3787 27.971 21.7319C33.0393 19.6697 35.346 16.6987 35.6432 16.3143ZM19.1454 12.5566C19.5125 13.0462 21.9591 16.4542 24.2484 20.5086C17.8174 22.2211 12.1374 22.1863 11.5258 22.1863C12.4168 17.9221 15.3005 14.3742 19.1454 12.5566ZM25 11.2635C28.4953 11.2635 31.6935 12.5744 34.1227 14.7239C33.8781 15.0732 31.7982 17.8521 26.9049 19.6871C24.6504 15.5454 22.1515 12.1548 21.767 11.6305C22.7979 11.3859 23.8814 11.2635 25 11.2635Z" fill="#F1EDED"/>
</svg>
