<svg width="20" height="20" viewBox="0 0 20 20" fill="none" xmlns="http://www.w3.org/2000/svg">
<path fill-rule="evenodd" clip-rule="evenodd" d="M10 0C15.5191 0 20 4.48086 20 10C20 15.5191 15.5191 20 10 20C4.48086 20 0 15.5191 0 10C0 4.48086 4.48086 0 10 0ZM10 3.55469C6.4418 3.55469 3.55469 6.4418 3.55469 10C3.55469 13.5582 6.4418 16.4453 10 16.4453C13.5513 16.4453 16.4453 13.5582 16.4453 10C16.4453 6.4418 13.5513 3.55469 10 3.55469ZM10 15.5086C8.7277 15.5086 7.55336 15.0752 6.62355 14.3481C6.72141 14.1454 7.83992 11.9924 10.9437 10.9088C10.9577 10.9018 10.9647 10.9018 10.9787 10.8947C11.7547 12.9011 12.0692 14.5859 12.1531 15.0682C11.489 15.3548 10.762 15.5086 10 15.5086V15.5086ZM13.0689 14.5648C13.0129 14.2293 12.7194 12.6214 11.9993 10.6431C13.7261 10.3705 15.2359 10.8179 15.4246 10.8808C15.1871 12.4117 14.3062 13.733 13.0689 14.5648ZM4.49145 10.007V9.83926C4.72914 9.84621 7.39957 9.88113 10.1468 9.05629C10.3076 9.36387 10.4544 9.6784 10.5941 9.99305C10.5243 10.0141 10.4474 10.0349 10.3774 10.0559C7.5393 10.9717 6.0293 13.4743 5.90348 13.684C5.02977 12.7123 4.49145 11.4191 4.49145 10.007V10.007ZM14.2573 6.5257C15.0262 7.4625 15.4877 8.65781 15.5016 9.95102C15.3198 9.91609 13.5023 9.54562 11.6707 9.77637C11.6289 9.68547 11.5938 9.5875 11.5519 9.48965C11.44 9.2241 11.3142 8.95148 11.1884 8.69277C13.2157 7.86789 14.1384 6.67949 14.2573 6.5257V6.5257ZM7.65816 5.02266C7.805 5.21848 8.78363 6.58168 9.69938 8.20344C7.12695 8.88844 4.85496 8.87453 4.61031 8.87453C4.96672 7.16883 6.1202 5.74969 7.65816 5.02266ZM10 4.50539C11.3981 4.50539 12.6774 5.02977 13.6491 5.88957C13.5512 6.0293 12.7193 7.14086 10.762 7.87484C9.86016 6.21816 8.86059 4.86191 8.7068 4.65219C9.11918 4.55438 9.55258 4.50539 10 4.50539Z" fill="#F1EDED"/>
</svg>
